<?xml version="1.0" standalone="no"?>
<!DOCTYPE svg PUBLIC "-//W3C//DTD SVG 20010904//EN"
 "http://www.w3.org/TR/2001/REC-SVG-20010904/DTD/svg10.dtd">
<svg version="1.0" xmlns="http://www.w3.org/2000/svg"
 width="192.000000pt" height="192.000000pt" viewBox="0 0 192.000000 192.000000"
 preserveAspectRatio="xMidYMid meet">
<metadata>
Created by potrace 1.11, written by Peter Selinger 2001-2013
</metadata>
<g transform="translate(0.000000,192.000000) scale(0.100000,-0.100000)"
fill="#000000" stroke="none">
<path d="M770 1866 c-371 -83 -637 -350 -715 -719 -20 -91 -19 -278 1 -375 57
-280 227 -499 492 -636 128 -66 212 -87 369 -93 141 -6 209 2 323 39 328 105
576 393 631 732 15 95 7 298 -16 381 -9 33 -38 105 -65 160 -132 273 -355 450
-642 509 -91 19 -297 20 -378 2z m383 -42 c310 -65 567 -311 659 -631 33 -113
33 -343 0 -456 -91 -316 -314 -539 -627 -629 -67 -19 -104 -23 -225 -23 -174
0 -240 15 -385 85 -343 167 -536 513 -494 889 23 206 99 368 243 520 210 219
519 310 829 245z"/>
<path d="M807 1790 c-169 -30 -321 -112 -447 -240 -354 -356 -311 -949 89
-1252 241 -182 553 -222 832 -108 276 114 471 373 510 677 50 395 -214 791
-601 903 -84 24 -298 36 -383 20z m258 -50 c7 0 20 -19 27 -41 l14 -41 26 35
c22 27 32 33 53 30 14 -3 25 -7 25 -10 0 -3 -20 -30 -45 -62 -25 -31 -45 -64
-45 -73 0 -32 -13 -48 -37 -48 -24 0 -25 2 -19 39 4 29 -1 56 -19 105 -29 78
-30 80 -9 72 9 -3 22 -6 29 -6z m-112 -92 c29 -62 40 -95 33 -100 -20 -14 -45
-8 -51 12 -10 33 -95 20 -95 -14 0 -12 -47 -32 -56 -24 -3 4 45 198 52 210 3
4 21 8 40 8 33 0 35 -2 77 -92z m388 11 c51 -27 57 -34 48 -50 -9 -19 -11 -19
-48 1 -21 10 -41 16 -45 13 -14 -14 -4 -33 24 -48 32 -16 35 -22 21 -43 -6
-10 -15 -9 -44 8 -35 21 -36 21 -46 2 -9 -16 -4 -22 29 -41 42 -23 50 -38 26
-47 -11 -4 -107 36 -125 52 -7 7 82 184 92 184 5 0 36 -14 68 -31z m-656 -3
c8 -13 13 -31 9 -40 -4 -10 -1 -16 7 -16 21 0 49 -32 49 -55 0 -12 -10 -31
-22 -42 -25 -21 -99 -66 -103 -61 -11 15 -96 180 -94 182 26 21 99 56 116 56
13 0 29 -10 38 -24z m848 -142 c55 -67 48 -124 -18 -128 -20 -1 -29 -10 -42
-44 -15 -40 -17 -42 -34 -26 -23 21 -24 36 -4 74 21 40 1 49 -34 16 l-28 -26
-19 21 -19 21 75 69 c41 38 77 69 80 68 3 0 22 -21 43 -45z m-470 -39 c193
-41 364 -203 406 -385 18 -76 13 -210 -9 -282 -53 -172 -216 -323 -387 -358
-80 -17 -225 -8 -296 18 -221 80 -373 332 -338 560 26 165 103 288 234 373
119 78 254 103 390 74z m-657 -21 c-3 -9 -6 -20 -6 -25 0 -5 -9 -9 -20 -9 -10
0 -24 -9 -30 -20 -9 -16 -6 -25 14 -45 47 -47 113 -41 100 9 -3 14 1 28 11 36
15 12 19 12 32 -5 31 -43 -24 -125 -84 -125 -102 0 -158 97 -97 169 18 22 35
31 56 31 23 0 29 -4 24 -16z m1269 -165 c6 -28 2 -37 -41 -82 -27 -27 -42 -47
-33 -44 79 27 101 30 110 16 5 -8 9 -19 9 -24 0 -9 -163 -65 -189 -65 -5 0
-12 14 -16 31 -6 28 -2 36 41 80 53 54 51 57 -20 33 -52 -18 -51 -18 -60 13
-6 20 1 24 86 51 51 16 96 27 100 25 3 -2 10 -17 13 -34z m-1412 -15 c14 -5
14 -11 2 -45 -13 -36 -13 -40 6 -49 14 -8 20 -8 24 2 26 74 27 76 53 59 11 -7
11 -15 -2 -45 -15 -36 -15 -37 10 -46 14 -6 30 -10 35 -10 11 0 12 -30 0 -48
-7 -11 -21 -9 -77 11 -137 50 -125 41 -110 84 36 100 34 97 59 87z m155 -520
l17 -36 -50 -45 -50 -45 38 6 c20 3 52 9 70 12 30 5 34 2 50 -32 10 -20 17
-37 15 -39 -13 -9 -181 -95 -183 -93 -1 2 -7 13 -14 25 -11 21 -7 25 56 58 57
30 62 35 33 30 -105 -18 -129 -18 -136 -1 -5 13 9 33 47 73 l54 55 -64 -32
c-61 -30 -66 -31 -78 -15 -7 10 -10 22 -7 27 7 11 155 87 172 88 7 0 20 -16
30 -36z m1208 -10 l85 -46 -19 -31 c-18 -32 -19 -32 -85 -29 -37 2 -67 1 -67
-1 0 -3 23 -18 50 -33 55 -30 56 -32 37 -58 -12 -16 -19 -14 -98 31 l-86 48
15 33 c15 32 17 32 86 32 71 1 71 1 41 16 -69 37 -76 43 -65 64 6 11 13 20 16
20 3 0 44 -21 90 -46z m-214 -215 c-31 -28 -35 -49 -9 -49 6 0 23 11 37 25 24
23 28 24 40 10 11 -13 9 -20 -15 -45 -24 -25 -26 -32 -15 -45 12 -14 17 -12
46 16 31 30 54 32 54 4 0 -13 -86 -95 -100 -95 -5 0 -38 33 -75 72 l-67 73 53
48 c48 43 54 46 69 32 14 -15 12 -19 -18 -46z m-878 -70 c-48 -62 -53 -92 -17
-97 15 -2 32 11 64 52 24 31 46 56 49 56 3 0 13 -7 24 -15 17 -13 17 -16 -20
-62 -53 -68 -72 -83 -104 -83 -33 0 -78 33 -91 67 -11 28 -3 45 54 120 38 51
39 52 63 37 l24 -16 -46 -59z m76 33 c0 -11 -22 -32 -32 -32 -5 0 -4 9 2 20
11 20 30 28 30 12z m711 -104 c24 -46 45 -85 47 -89 1 -3 -9 -11 -22 -17 -23
-10 -27 -8 -46 23 -12 19 -24 35 -26 35 -5 0 -45 -20 -52 -25 -2 -1 5 -19 15
-40 17 -36 17 -37 -1 -51 -26 -19 -34 -10 -81 86 -33 68 -37 83 -25 90 24 15
34 12 52 -20 16 -27 19 -29 43 -18 28 13 30 22 10 58 -12 23 -12 26 8 37 12 7
25 12 28 13 3 0 25 -37 50 -82z m-554 22 c7 0 17 -32 24 -77 l13 -78 20 63
c20 62 28 70 56 52 12 -7 10 -22 -15 -99 -16 -51 -34 -91 -41 -91 -7 0 -24 4
-37 9 -21 8 -26 18 -32 70 -4 34 -10 61 -15 61 -4 0 -13 -21 -20 -46 -14 -48
-29 -61 -54 -47 -12 7 -10 22 16 101 27 86 31 93 51 88 12 -3 27 -6 34 -6z
m309 -45 c19 -15 19 -15 0 -30 -13 -10 -23 -12 -30 -5 -16 16 -45 11 -56 -10
-12 -23 -4 -68 18 -92 19 -23 28 -23 49 2 15 17 63 29 63 15 0 -18 -26 -55
-47 -64 -86 -39 -174 47 -141 140 18 52 101 77 144 44z"/>
<path d="M867 1669 c-11 -39 -8 -49 13 -49 23 0 25 15 6 49 l-13 23 -6 -23z"/>
<path d="M603 1614 c-3 -8 -1 -20 4 -25 12 -12 48 14 39 29 -10 17 -36 15 -43
-4z"/>
<path d="M643 1544 c-3 -8 -1 -20 5 -26 16 -16 42 -2 42 22 0 24 -38 28 -47 4z"/>
<path d="M1480 1475 c-11 -13 -11 -19 2 -32 17 -16 38 -10 38 11 0 8 -6 19
-14 25 -10 9 -16 8 -26 -4z"/>
<path d="M808 1421 c-104 -34 -195 -103 -256 -194 -24 -37 -25 -38 -8 -75 9
-20 26 -48 36 -62 l20 -25 0 41 c0 62 12 164 19 164 3 0 26 -36 51 -80 42 -75
45 -78 51 -53 4 16 7 55 8 88 2 98 13 99 68 4 l48 -83 7 44 c3 25 7 68 7 97 1
28 5 54 10 57 5 3 31 -31 58 -76 l48 -83 7 55 c3 30 6 76 7 103 1 26 5 47 9
47 5 0 28 -34 52 -77 43 -74 44 -76 51 -47 4 16 9 57 11 91 3 50 1 64 -11 69
-9 4 -65 8 -126 10 -88 3 -121 0 -167 -15z"/>
<path d="M1175 1353 c15 -27 34 -55 41 -63 12 -12 14 -8 14 28 0 37 -4 45 -32
62 -49 30 -53 25 -23 -27z"/>
<path d="M1226 1224 c-3 -9 -6 -37 -7 -62 0 -26 -3 -64 -7 -85 l-7 -39 -43 76
c-24 41 -47 78 -52 81 -4 3 -12 -40 -15 -95 -4 -55 -11 -97 -16 -95 -4 3 -27
40 -50 81 -46 84 -58 84 -59 -1 -1 -27 -4 -68 -8 -90 l-7 -40 -51 88 -51 89
-6 -39 c-4 -21 -7 -58 -8 -83 0 -25 -4 -56 -8 -70 -6 -22 -12 -16 -56 60 l-49
85 -7 -45 c-4 -25 -8 -68 -8 -97 -1 -28 -5 -54 -10 -57 -4 -3 -28 31 -53 75
-50 88 -57 87 -59 -9 -1 -31 -4 -70 -8 -87 -7 -29 -8 -28 -54 50 l-47 80 0
-56 c0 -82 52 -239 80 -239 6 0 10 24 10 54 0 30 4 57 8 60 5 3 29 -30 53 -74
49 -87 56 -86 59 10 2 30 5 69 9 85 6 29 8 28 56 -53 l50 -83 7 38 c4 21 7 61
8 88 1 86 12 85 66 -7 l49 -83 7 45 c3 25 7 68 7 97 1 28 5 54 9 57 5 3 28
-29 52 -70 25 -41 48 -74 52 -74 5 0 8 22 8 49 0 61 11 141 19 141 3 0 26 -35
51 -78 l44 -77 7 45 c4 25 8 69 8 98 1 28 5 52 10 52 5 0 31 -37 58 -82 l48
-83 10 110 11 110 27 -45 c16 -25 39 -63 53 -85 l25 -40 -4 85 c-5 86 -29 168
-66 224 l-19 28 -8 -83 -9 -83 -48 82 c-26 45 -49 82 -51 82 -2 0 -7 -7 -10
-16z"/>
<path d="M1316 825 c-3 -9 -6 -38 -7 -63 0 -26 -4 -66 -7 -90 l-7 -43 -50 83
c-45 76 -50 81 -56 58 -4 -14 -8 -50 -9 -80 -4 -107 -10 -109 -60 -20 -25 44
-48 80 -52 80 -5 0 -8 -24 -9 -52 0 -29 -4 -75 -8 -103 l-6 -50 -41 70 c-23
39 -46 79 -52 90 -8 16 -11 9 -16 -40 -4 -33 -10 -82 -14 -110 l-7 -50 -50 85
-49 85 -7 -40 c-5 -22 -8 -61 -8 -87 l-1 -46 50 -11 c169 -36 353 24 465 151
70 79 72 88 38 148 -23 40 -32 48 -37 35z"/>
<path d="M680 597 c0 -26 6 -36 30 -50 17 -10 30 -15 30 -11 0 10 -50 94 -55
94 -3 0 -5 -15 -5 -33z"/>
</g>
</svg>
